<svg xmlns="http://www.w3.org/2000/svg" viewBox="0 0 98 98"><path class="icon-color-fill-secondary" d="M25 27h48c.6 0 1 .4 1 1s-.4 1-1 1H25c-.6 0-1-.4-1-1s.4-1 1-1zm0 10h38c.6 0 1 .4 1 1s-.4 1-1 1H25c-.6 0-1-.4-1-1s.4-1 1-1zm0 10h43c.6 0 1 .4 1 1s-.4 1-1 1H25c-.6 0-1-.4-1-1s.4-1 1-1z"/><path class="icon-color-fill-primary" d="M87.1 34.6L84 32.4V21c0-2.2-1.8-4-4-4H61.9l-8-5.6c-2.7-1.9-7.1-1.9-9.8 0l-8 5.6H18c-2.2 0-4 1.8-4 4v11.4l-3.1 2.1C8.2 36.5 6 40.7 6 44v38c0 3.3 2.7 6 6 6h74c3.3 0 6-2.7 6-6V44c0-3.3-2.2-7.5-4.9-9.4zM45.2 13.1c1-.7 2.4-1.1 3.8-1.1s2.8.4 3.8 1.1l5.6 3.9H39.6l5.6-3.9zM8 44c0-2.6 1.9-6.3 4.1-7.8l1.9-1.3v17.8l-6-2V44zm82 38c0 2.2-1.8 4-4 4H12c-2.2 0-4-1.8-4-4v-1c0-.9.8-2.1 1.6-2.5l34.8-16.2c1.2-.6 2.9-.9 4.6-.9 1.7 0 3.4.3 4.6.9l34.8 16.2c.8.4 1.6 1.6 1.6 2.5v1zm0-4.8c-.2-.2-.5-.3-.7-.5L54.4 60.5c-3-1.4-7.9-1.4-10.9 0L8.7 76.7c-.2.2-.5.3-.7.5V52.8L38.3 63l2.6-1.2-25-8.4V21c0-1.1.9-2 2-2h62c1.1 0 2 .9 2 2v32.4l-25 8.4 2.6 1.2L90 52.8v24.4zm0-26.5l-6 2V34.9l1.9 1.3c2.2 1.5 4.1 5.2 4.1 7.8v6.7z"/></svg>